# xmcd
#
# Track frame offsets: 
#        182
#        14850
#        28525
#        42600
#        56825
#        71200
#        84112
#        97825
#        111600
#        125325
#        138975
#        152600
#        165600
#        179550
#        193450
#        207975
#
# Disc length: 2953 seconds
#
# Revision: 1
# Processed by: cddbd v1.5.2PL0 Copyright (c) Steve Scherf et al.
# Submitted via: ExactAudioCopyFreeDBPlugin 1.0
#
DISCID=ee0b8710
DTITLE=Bix Beiderbeck - Bix and the Frankie Trumbauer Orchestra
DYEAR=1900
DGENRE=Jazz
TTITLE0=Clarinet Marmalade
TTITLE1=Singin' the Blues
TTITLE2=Ostrich Walk
TTITLE3=Riverboat Shuffle
TTITLE4=I'm Coming Virginia
TTITLE5=Way down yonder in New Orleans
TTITLE6=Three Blind Mice
TTITLE7=Humpty Dumpty
TTITLE8=Krazy Kat
TTITLE9=The Baltimore
TTITLE10=Crying All Day
TTITLE11=There'll Come a Time
TTITLE12=Mississippi Mud
TTITLE13=Borneo
TTITLE14=Bless You Sister
TTITLE15=Baby Won't You Please Come Home
EXTD=
EXTT0=
EXTT1=
EXTT2=
EXTT3=
EXTT4=
EXTT5=
EXTT6=
EXTT7=
EXTT8=
EXTT9=
EXTT10=
EXTT11=
EXTT12=
EXTT13=
EXTT14=
EXTT15=
PLAYORDER=
